<?xml version="1.0" encoding="utf-8" standalone="no"?>
<!DOCTYPE svg PUBLIC "-//W3C//DTD SVG 1.1//EN"
  "http://www.w3.org/Graphics/SVG/1.1/DTD/svg11.dtd">
<svg xmlns:xlink="http://www.w3.org/1999/xlink" width="576pt" height="504pt" viewBox="0 0 576 504" xmlns="http://www.w3.org/2000/svg" version="1.1">
 <metadata>
  <rdf:RDF xmlns:dc="http://purl.org/dc/elements/1.1/" xmlns:cc="http://creativecommons.org/ns#" xmlns:rdf="http://www.w3.org/1999/02/22-rdf-syntax-ns#">
   <cc:Work>
    <dc:type rdf:resource="http://purl.org/dc/dcmitype/StillImage"/>
    <dc:date>2026-04-08T15:53:24.865284</dc:date>
    <dc:format>image/svg+xml</dc:format>
    <dc:creator>
     <cc:Agent>
      <dc:title>Matplotlib v3.10.3, https://matplotlib.org/</dc:title>
     </cc:Agent>
    </dc:creator>
   </cc:Work>
  </rdf:RDF>
 </metadata>
 <defs>
  <style type="text/css">*{stroke-linejoin: round; stroke-linecap: butt}</style>
 </defs>
 <g id="figure_1">
  <g id="patch_1">
   <path d="M 0 504 
L 576 504 
L 576 0 
L 0 0 
z
" style="fill: #ffffff"/>
  </g>
  <g id="axes_1">
   <g id="patch_2">
    <path d="M 93.764 176.151373 
L 542.538 176.151373 
L 542.538 50.027059 
L 93.764 50.027059 
z
" style="fill: #ffffff"/>
   </g>
   <g id="FillBetweenPolyCollection_1">
    <path d="M 114.162818 104.289555 
L 114.162818 104.327817 
L 118.283792 104.805887 
L 122.404765 105.318358 
L 126.525738 105.840644 
L 130.646712 106.365277 
L 134.767685 106.884959 
L 138.888658 107.392574 
L 143.009632 107.881294 
L 147.130605 108.344708 
L 151.251579 108.77694 
L 155.372552 109.17276 
L 159.493525 109.527688 
L 163.614499 109.838081 
L 167.735472 110.101202 
L 171.856445 110.315282 
L 175.977419 110.479548 
L 180.098392 110.59424 
L 184.219365 110.660606 
L 188.340339 110.680871 
L 192.461312 110.658192 
L 196.582286 110.596589 
L 200.703259 110.500864 
L 204.824232 110.376497 
L 208.945206 110.229543 
L 213.066179 110.066503 
L 217.187152 109.894201 
L 221.308126 109.719652 
L 225.429099 109.549932 
L 229.550073 109.392041 
L 233.671046 109.252786 
L 237.792019 109.138654 
L 241.912993 109.055705 
L 246.033966 109.00947 
L 250.154939 109.004862 
L 254.275913 109.046104 
L 258.396886 109.136659 
L 262.51786 109.279194 
L 266.638833 109.475539 
L 270.759806 109.726681 
L 274.88078 110.032765 
L 279.001753 110.393121 
L 283.122726 110.806318 
L 287.2437 111.270261 
L 291.364673 111.782345 
L 295.485646 112.339732 
L 299.60662 112.93983 
L 303.727593 113.581236 
L 307.848567 114.265537 
L 311.96954 115.000417 
L 316.090513 115.801938 
L 320.211487 116.685327 
L 324.33246 117.641851 
L 328.453433 118.638918 
L 332.574407 119.643403 
L 336.69538 120.631051 
L 340.816354 121.584399 
L 344.937327 122.489855 
L 349.0583 123.336073 
L 353.179274 124.113197 
L 357.300247 124.812533 
L 361.42122 125.426426 
L 365.542194 125.948241 
L 369.663167 126.372379 
L 373.78414 126.694322 
L 377.905114 126.910674 
L 382.026087 127.0192 
L 386.147061 127.018861 
L 390.268034 126.909828 
L 394.389007 126.693483 
L 398.509981 126.372408 
L 402.630954 125.950349 
L 406.751927 125.432166 
L 410.872901 124.823762 
L 414.993874 124.131998 
L 419.114848 123.364589 
L 423.235821 122.529989 
L 427.356794 121.637261 
L 431.477768 120.69594 
L 435.598741 119.715887 
L 439.719714 118.707139 
L 443.840688 117.679763 
L 447.961661 116.643706 
L 452.082635 115.608653 
L 456.203608 114.583892 
L 460.324581 113.578192 
L 464.445555 112.59969 
L 468.566528 111.655792 
L 472.687501 110.753098 
L 476.808475 109.897333 
L 480.929448 109.093309 
L 485.050421 108.344897 
L 489.171395 107.655022 
L 493.292368 107.02568 
L 497.413342 106.457968 
L 501.534315 105.952135 
L 505.655288 105.507649 
L 509.776262 105.123272 
L 513.897235 104.79717 
L 518.018208 104.527125 
L 522.139182 104.327708 
L 522.139182 104.289446 
L 522.139182 104.289446 
L 518.018208 104.06035 
L 513.897235 103.869047 
L 509.776262 103.737884 
L 505.655288 103.671419 
L 501.534315 103.673413 
L 497.413342 103.746872 
L 493.292368 103.893987 
L 489.171395 104.116081 
L 485.050421 104.413551 
L 480.929448 104.785828 
L 476.808475 105.231355 
L 472.687501 105.747568 
L 468.566528 106.330905 
L 464.445555 106.976823 
L 460.324581 107.67984 
L 456.203608 108.433591 
L 452.082635 109.230897 
L 447.961661 110.063863 
L 443.840688 110.923979 
L 439.719714 111.802242 
L 435.598741 112.689281 
L 431.477768 113.575503 
L 427.356794 114.451231 
L 423.235821 115.306853 
L 419.114848 116.132966 
L 414.993874 116.920522 
L 410.872901 117.66096 
L 406.751927 118.346334 
L 402.630954 118.969427 
L 398.509981 119.523854 
L 394.389007 120.004147 
L 390.268034 120.405821 
L 386.147061 120.725429 
L 382.026087 120.960592 
L 377.905114 121.110012 
L 373.78414 121.173466 
L 369.663167 121.15178 
L 365.542194 121.046783 
L 361.42122 120.861244 
L 357.300247 120.598777 
L 353.179274 120.263732 
L 349.0583 119.861035 
L 344.937327 119.395972 
L 340.816354 118.873865 
L 336.69538 118.299534 
L 332.574407 117.676316 
L 328.453433 117.004216 
L 324.33246 116.276776 
L 320.211487 115.478766 
L 316.090513 114.595377 
L 311.96954 113.635342 
L 307.848567 112.630835 
L 303.727593 111.614149 
L 299.60662 110.608314 
L 295.485646 109.629198 
L 291.364673 108.688462 
L 287.2437 107.795222 
L 283.122726 106.956853 
L 279.001753 106.179366 
L 274.88078 105.467583 
L 270.759806 104.825224 
L 266.638833 104.25494 
L 262.51786 103.758337 
L 258.396886 103.335997 
L 254.275913 102.987495 
L 250.154939 102.71143 
L 246.033966 102.505462 
L 241.912993 102.366369 
L 237.792019 102.2901 
L 233.671046 102.271864 
L 229.550073 102.306209 
L 225.429099 102.38713 
L 221.308126 102.508177 
L 217.187152 102.662578 
L 213.066179 102.843367 
L 208.945206 103.043513 
L 204.824232 103.25606 
L 200.703259 103.474258 
L 196.582286 103.691692 
L 192.461312 103.902408 
L 188.340339 104.101028 
L 184.219365 104.28285 
L 180.098392 104.443939 
L 175.977419 104.581196 
L 171.856445 104.692415 
L 167.735472 104.776315 
L 163.614499 104.832551 
L 159.493525 104.86171 
L 155.372552 104.865279 
L 151.251579 104.845594 
L 147.130605 104.805768 
L 143.009632 104.749602 
L 138.888658 104.681478 
L 134.767685 104.606237 
L 130.646712 104.529046 
L 126.525738 104.455255 
L 122.404765 104.390235 
L 118.283792 104.339112 
L 114.162818 104.289555 
z
" clip-path="url(#p63962c07f8)" style="fill: #1f77b4; fill-opacity: 0.5"/>
   </g>
   <g id="matplotlib.axis_1">
    <g id="xtick_1">
     <g id="line2d_1">
      <defs>
       <path id="m54de9fd0cb" d="M 0 0 
L 0 3.5 
" style="stroke: #000000; stroke-width: 0.8"/>
      </defs>
      <g>
       <use xlink:href="#m54de9fd0cb" x="114.162818" y="176.151373" style="stroke: #000000; stroke-width: 0.8"/>
      </g>
     </g>
    </g>
    <g id="xtick_2">
     <g id="line2d_2">
      <g>
       <use xlink:href="#m54de9fd0cb" x="182.158879" y="176.151373" style="stroke: #000000; stroke-width: 0.8"/>
      </g>
     </g>
    </g>
    <g id="xtick_3">
     <g id="line2d_3">
      <g>
       <use xlink:href="#m54de9fd0cb" x="250.154939" y="176.151373" style="stroke: #000000; stroke-width: 0.8"/>
      </g>
     </g>
    </g>
    <g id="xtick_4">
     <g id="line2d_4">
      <g>
       <use xlink:href="#m54de9fd0cb" x="318.151" y="176.151373" style="stroke: #000000; stroke-width: 0.8"/>
      </g>
     </g>
    </g>
    <g id="xtick_5">
     <g id="line2d_5">
      <g>
       <use xlink:href="#m54de9fd0cb" x="386.147061" y="176.151373" style="stroke: #000000; stroke-width: 0.8"/>
      </g>
     </g>
    </g>
    <g id="xtick_6">
     <g id="line2d_6">
      <g>
       <use xlink:href="#m54de9fd0cb" x="454.143121" y="176.151373" style="stroke: #000000; stroke-width: 0.8"/>
      </g>
     </g>
    </g>
    <g id="xtick_7">
     <g id="line2d_7">
      <g>
       <use xlink:href="#m54de9fd0cb" x="522.139182" y="176.151373" style="stroke: #000000; stroke-width: 0.8"/>
      </g>
     </g>
    </g>
   </g>
   <g id="matplotlib.axis_2">
    <g id="ytick_1">
     <g id="line2d_8">
      <defs>
       <path id="m0adedd4289" d="M 0 0 
L -3.5 0 
" style="stroke: #000000; stroke-width: 0.8"/>
      </defs>
      <g>
       <use xlink:href="#m0adedd4289" x="93.764" y="144.892605" style="stroke: #000000; stroke-width: 0.8"/>
      </g>
     </g>
     <g id="text_1">
      <!-- −2.5 -->
      <g transform="translate(43.054938 151.731199) scale(0.18 -0.18)">
       <defs>
        <path id="DejaVuSans-2212" d="M 678 2272 
L 4684 2272 
L 4684 1741 
L 678 1741 
L 678 2272 
z
" transform="scale(0.015625)"/>
        <path id="DejaVuSans-32" d="M 1228 531 
L 3431 531 
L 3431 0 
L 469 0 
L 469 531 
Q 828 903 1448 1529 
Q 2069 2156 2228 2338 
Q 2531 2678 2651 2914 
Q 2772 3150 2772 3378 
Q 2772 3750 2511 3984 
Q 2250 4219 1831 4219 
Q 1534 4219 1204 4116 
Q 875 4013 500 3803 
L 500 4441 
Q 881 4594 1212 4672 
Q 1544 4750 1819 4750 
Q 2544 4750 2975 4387 
Q 3406 4025 3406 3419 
Q 3406 3131 3298 2873 
Q 3191 2616 2906 2266 
Q 2828 2175 2409 1742 
Q 1991 1309 1228 531 
z
" transform="scale(0.015625)"/>
        <path id="DejaVuSans-2e" d="M 684 794 
L 1344 794 
L 1344 0 
L 684 0 
L 684 794 
z
" transform="scale(0.015625)"/>
        <path id="DejaVuSans-35" d="M 691 4666 
L 3169 4666 
L 3169 4134 
L 1269 4134 
L 1269 2991 
Q 1406 3038 1543 3061 
Q 1681 3084 1819 3084 
Q 2600 3084 3056 2656 
Q 3513 2228 3513 1497 
Q 3513 744 3044 326 
Q 2575 -91 1722 -91 
Q 1428 -91 1123 -41 
Q 819 9 494 109 
L 494 744 
Q 775 591 1075 516 
Q 1375 441 1709 441 
Q 2250 441 2565 725 
Q 2881 1009 2881 1497 
Q 2881 1984 2565 2268 
Q 2250 2553 1709 2553 
Q 1456 2553 1204 2497 
Q 953 2441 691 2322 
L 691 4666 
z
" transform="scale(0.015625)"/>
       </defs>
       <use xlink:href="#DejaVuSans-2212"/>
       <use xlink:href="#DejaVuSans-32" transform="translate(83.789062 0)"/>
       <use xlink:href="#DejaVuSans-2e" transform="translate(147.412109 0)"/>
       <use xlink:href="#DejaVuSans-35" transform="translate(179.199219 0)"/>
      </g>
     </g>
    </g>
    <g id="ytick_2">
     <g id="line2d_9">
      <g>
       <use xlink:href="#m0adedd4289" x="93.764" y="111.072616" style="stroke: #000000; stroke-width: 0.8"/>
      </g>
     </g>
     <g id="text_2">
      <!-- 0.0 -->
      <g transform="translate(58.138375 117.91121) scale(0.18 -0.18)">
       <defs>
        <path id="DejaVuSans-30" d="M 2034 4250 
Q 1547 4250 1301 3770 
Q 1056 3291 1056 2328 
Q 1056 1369 1301 889 
Q 1547 409 2034 409 
Q 2525 409 2770 889 
Q 3016 1369 3016 2328 
Q 3016 3291 2770 3770 
Q 2525 4250 2034 4250 
z
M 2034 4750 
Q 2819 4750 3233 4129 
Q 3647 3509 3647 2328 
Q 3647 1150 3233 529 
Q 2819 -91 2034 -91 
Q 1250 -91 836 529 
Q 422 1150 422 2328 
Q 422 3509 836 4129 
Q 1250 4750 2034 4750 
z
" transform="scale(0.015625)"/>
       </defs>
       <use xlink:href="#DejaVuSans-30"/>
       <use xlink:href="#DejaVuSans-2e" transform="translate(63.623047 0)"/>
       <use xlink:href="#DejaVuSans-30" transform="translate(95.410156 0)"/>
      </g>
     </g>
    </g>
    <g id="ytick_3">
     <g id="line2d_10">
      <g>
       <use xlink:href="#m0adedd4289" x="93.764" y="77.252628" style="stroke: #000000; stroke-width: 0.8"/>
      </g>
     </g>
     <g id="text_3">
      <!-- 2.5 -->
      <g transform="translate(58.138375 84.091222) scale(0.18 -0.18)">
       <use xlink:href="#DejaVuSans-32"/>
       <use xlink:href="#DejaVuSans-2e" transform="translate(63.623047 0)"/>
       <use xlink:href="#DejaVuSans-35" transform="translate(95.410156 0)"/>
      </g>
     </g>
    </g>
    <g id="text_4">
     <!-- $\theta_1$ -->
     <g transform="translate(35.3115 122.899216) rotate(-90) scale(0.18 -0.18)">
      <defs>
       <path id="DejaVuSans-Oblique-3b8" d="M 2913 2219 
L 925 2219 
Q 791 1284 928 888 
Q 1100 400 1566 400 
Q 2034 400 2391 891 
Q 2703 1322 2913 2219 
z
M 3009 2750 
Q 3094 3638 2984 3950 
Q 2813 4444 2353 4444 
Q 1875 4444 1525 3956 
Q 1250 3563 1034 2750 
L 3009 2750 
z
M 2444 4913 
Q 3194 4913 3494 4250 
Q 3794 3591 3566 2422 
Q 3341 1256 2781 594 
Q 2225 -72 1475 -72 
Q 722 -72 425 594 
Q 128 1256 353 2422 
Q 581 3591 1134 4250 
Q 1691 4913 2444 4913 
z
" transform="scale(0.015625)"/>
       <path id="DejaVuSans-31" d="M 794 531 
L 1825 531 
L 1825 4091 
L 703 3866 
L 703 4441 
L 1819 4666 
L 2450 4666 
L 2450 531 
L 3481 531 
L 3481 0 
L 794 0 
L 794 531 
z
" transform="scale(0.015625)"/>
      </defs>
      <use xlink:href="#DejaVuSans-Oblique-3b8" transform="translate(0 0.234375)"/>
      <use xlink:href="#DejaVuSans-31" transform="translate(61.181641 -16.171875) scale(0.7)"/>
     </g>
    </g>
   </g>
   <g id="line2d_11">
    <path d="M 114.162818 104.308686 
L 118.283792 104.5725 
L 122.404765 104.854296 
L 126.525738 105.14795 
L 130.646712 105.447162 
L 134.767685 105.745598 
L 138.888658 106.037026 
L 143.009632 106.315448 
L 147.130605 106.575238 
L 151.251579 106.811267 
L 155.372552 107.01902 
L 159.493525 107.194699 
L 163.614499 107.335316 
L 167.735472 107.438758 
L 171.856445 107.503849 
L 175.977419 107.530372 
L 180.098392 107.51909 
L 184.219365 107.471728 
L 188.340339 107.39095 
L 192.461312 107.2803 
L 196.582286 107.144141 
L 200.703259 106.987561 
L 204.824232 106.816279 
L 208.945206 106.636528 
L 213.066179 106.454935 
L 217.187152 106.27839 
L 221.308126 106.113915 
L 225.429099 105.968531 
L 229.550073 105.849125 
L 233.671046 105.762325 
L 237.792019 105.714377 
L 241.912993 105.711037 
L 246.033966 105.757466 
L 250.154939 105.858146 
L 254.275913 106.016799 
L 258.396886 106.236328 
L 262.51786 106.518765 
L 266.638833 106.865239 
L 270.759806 107.275953 
L 274.88078 107.750174 
L 279.001753 108.286243 
L 283.122726 108.881585 
L 287.2437 109.532742 
L 291.364673 110.235404 
L 295.485646 110.984465 
L 299.60662 111.774072 
L 303.727593 112.597693 
L 307.848567 113.448186 
L 311.96954 114.31788 
L 316.090513 115.198658 
L 320.211487 116.082046 
L 324.33246 116.959314 
L 328.453433 117.821567 
L 332.574407 118.659859 
L 336.69538 119.465293 
L 340.816354 120.229132 
L 344.937327 120.942913 
L 349.0583 121.598554 
L 353.179274 122.188465 
L 357.300247 122.705655 
L 361.42122 123.143835 
L 365.542194 123.497512 
L 369.663167 123.762079 
L 373.78414 123.933894 
L 377.905114 124.010343 
L 382.026087 123.989896 
L 386.147061 123.872145 
L 390.268034 123.657824 
L 394.389007 123.348815 
L 398.509981 122.948131 
L 402.630954 122.459888 
L 406.751927 121.88925 
L 410.872901 121.242361 
L 414.993874 120.52626 
L 419.114848 119.748777 
L 423.235821 118.918421 
L 427.356794 118.044246 
L 431.477768 117.135722 
L 435.598741 116.202584 
L 439.719714 115.254691 
L 443.840688 114.301871 
L 447.961661 113.353785 
L 452.082635 112.419775 
L 456.203608 111.508741 
L 460.324581 110.629016 
L 464.445555 109.788256 
L 468.566528 108.993349 
L 472.687501 108.250333 
L 476.808475 107.564344 
L 480.929448 106.939569 
L 485.050421 106.379224 
L 489.171395 105.885552 
L 493.292368 105.459834 
L 497.413342 105.10242 
L 501.534315 104.812774 
L 505.655288 104.589534 
L 509.776262 104.430578 
L 513.897235 104.333109 
L 518.018208 104.293737 
L 522.139182 104.308577 
" clip-path="url(#p63962c07f8)" style="fill: none; stroke: #0000ff; stroke-width: 1.5; stroke-linecap: square"/>
   </g>
   <g id="line2d_12">
    <path d="M 114.162818 97.544621 
L 118.283792 94.774545 
L 122.404765 92.058316 
L 126.525738 89.399996 
L 130.646712 86.803612 
L 134.767685 84.273219 
L 138.888658 81.812971 
L 143.009632 79.427178 
L 147.130605 77.120363 
L 151.251579 74.897302 
L 155.372552 72.763067 
L 159.493525 70.723046 
L 163.614499 68.782967 
L 167.735472 66.948895 
L 171.856445 65.227232 
L 175.977419 63.624692 
L 180.098392 62.148276 
L 184.219365 60.805228 
L 188.340339 59.60298 
L 192.461312 58.54909 
L 196.582286 57.651169 
L 200.703259 56.916793 
L 204.824232 56.353421 
L 208.945206 55.968289 
L 213.066179 55.768314 
L 217.187152 55.759982 
L 221.308126 55.949247 
L 225.429099 56.341415 
L 229.550073 56.941042 
L 233.671046 57.751826 
L 237.792019 58.776508 
L 241.912993 60.016778 
L 246.033966 61.473188 
L 250.154939 63.145077 
L 254.275913 65.030502 
L 258.396886 67.126186 
L 262.51786 69.427474 
L 266.638833 71.928309 
L 270.759806 74.621215 
L 274.88078 77.497303 
L 279.001753 80.546287 
L 283.122726 83.756518 
L 287.2437 87.115033 
L 291.364673 90.60762 
L 295.485646 94.218901 
L 299.60662 97.932421 
L 303.727593 101.730757 
L 307.848567 105.595639 
L 311.96954 109.508079 
L 316.090513 113.448512 
L 320.211487 117.396943 
L 324.33246 121.333104 
L 328.453433 125.236609 
L 332.574407 129.08712 
L 336.69538 132.864507 
L 340.816354 136.549011 
L 344.937327 140.121404 
L 349.0583 143.56314 
L 353.179274 146.856507 
L 357.300247 149.984763 
L 361.42122 152.932266 
L 365.542194 155.684597 
L 369.663167 158.228658 
L 373.78414 160.552771 
L 377.905114 162.646751 
L 382.026087 164.501969 
L 386.147061 166.111398 
L 390.268034 167.46964 
L 394.389007 168.572941 
L 398.509981 169.419186 
L 402.630954 170.007875 
L 406.751927 170.340092 
L 410.872901 170.418449 
L 414.993874 170.247023 
L 419.114848 169.831275 
L 423.235821 169.17796 
L 427.356794 168.295025 
L 431.477768 167.1915 
L 435.598741 165.877377 
L 439.719714 164.36349 
L 443.840688 162.661383 
L 447.961661 160.783181 
L 452.082635 158.741462 
L 456.203608 156.549124 
L 460.324581 154.219261 
L 464.445555 151.765038 
L 468.566528 149.199577 
L 472.687501 146.53585 
L 476.808475 143.786574 
L 480.929448 140.964127 
L 485.050421 138.080467 
L 489.171395 135.147064 
L 493.292368 132.174843 
L 497.413342 129.174147 
L 501.534315 126.154703 
L 505.655288 123.125607 
L 509.776262 120.095319 
L 513.897235 117.071671 
L 518.018208 114.061888 
L 522.139182 111.072616 
" clip-path="url(#p63962c07f8)" style="fill: none; stroke-dasharray: 5.55,2.4; stroke-dashoffset: 0; stroke: #ff0000; stroke-width: 1.5"/>
   </g>
   <g id="line2d_13">
    <defs>
     <path id="m8b41417855" d="M 0 -3 
L -0.673542 -0.927051 
L -2.85317 -0.927051 
L -1.089814 0.354102 
L -1.763356 2.427051 
L -0 1.145898 
L 1.763356 2.427051 
L 1.089814 0.354102 
L 2.85317 -0.927051 
L 0.673542 -0.927051 
z
" style="stroke: #000000; stroke-linejoin: bevel"/>
    </defs>
    <g clip-path="url(#p63962c07f8)">
     <use xlink:href="#m8b41417855" x="114.162818" y="97.544621" style="stroke: #000000; stroke-linejoin: bevel"/>
     <use xlink:href="#m8b41417855" x="522.139182" y="111.072616" style="stroke: #000000; stroke-linejoin: bevel"/>
    </g>
   </g>
   <g id="patch_3">
    <path d="M 93.764 176.151373 
L 93.764 50.027059 
" style="fill: none; stroke: #000000; stroke-width: 0.8; stroke-linejoin: miter; stroke-linecap: square"/>
   </g>
   <g id="patch_4">
    <path d="M 542.538 176.151373 
L 542.538 50.027059 
" style="fill: none; stroke: #000000; stroke-width: 0.8; stroke-linejoin: miter; stroke-linecap: square"/>
   </g>
   <g id="patch_5">
    <path d="M 93.764 176.151373 
L 542.538 176.151373 
" style="fill: none; stroke: #000000; stroke-width: 0.8; stroke-linejoin: miter; stroke-linecap: square"/>
   </g>
   <g id="patch_6">
    <path d="M 93.764 50.027059 
L 542.538 50.027059 
" style="fill: none; stroke: #000000; stroke-width: 0.8; stroke-linejoin: miter; stroke-linecap: square"/>
   </g>
   <g id="legend_1">
    <g id="patch_7">
     <path d="M 65.14982 43.720843 
L 550.689508 43.720843 
Q 553.489508 43.720843 553.489508 40.920843 
L 553.489508 21.771468 
Q 553.489508 18.971468 550.689508 18.971468 
L 65.14982 18.971468 
Q 62.34982 18.971468 62.34982 21.771468 
L 62.34982 40.920843 
Q 62.34982 43.720843 65.14982 43.720843 
z
" style="fill: #ffffff; opacity: 0.8; stroke: #cccccc; stroke-linejoin: miter"/>
    </g>
    <g id="line2d_14">
     <path d="M 67.94982 30.309281 
L 81.94982 30.309281 
L 95.94982 30.309281 
" style="fill: none; stroke: #0000ff; stroke-width: 1.5; stroke-linecap: square"/>
    </g>
    <g id="text_5">
     <!-- Mean -->
     <g transform="translate(107.14982 35.209281) scale(0.14 -0.14)">
      <defs>
       <path id="DejaVuSans-4d" d="M 628 4666 
L 1569 4666 
L 2759 1491 
L 3956 4666 
L 4897 4666 
L 4897 0 
L 4281 0 
L 4281 4097 
L 3078 897 
L 2444 897 
L 1241 4097 
L 1241 0 
L 628 0 
L 628 4666 
z
" transform="scale(0.015625)"/>
       <path id="DejaVuSans-65" d="M 3597 1894 
L 3597 1613 
L 953 1613 
Q 991 1019 1311 708 
Q 1631 397 2203 397 
Q 2534 397 2845 478 
Q 3156 559 3463 722 
L 3463 178 
Q 3153 47 2828 -22 
Q 2503 -91 2169 -91 
Q 1331 -91 842 396 
Q 353 884 353 1716 
Q 353 2575 817 3079 
Q 1281 3584 2069 3584 
Q 2775 3584 3186 3129 
Q 3597 2675 3597 1894 
z
M 3022 2063 
Q 3016 2534 2758 2815 
Q 2500 3097 2075 3097 
Q 1594 3097 1305 2825 
Q 1016 2553 972 2059 
L 3022 2063 
z
" transform="scale(0.015625)"/>
       <path id="DejaVuSans-61" d="M 2194 1759 
Q 1497 1759 1228 1600 
Q 959 1441 959 1056 
Q 959 750 1161 570 
Q 1363 391 1709 391 
Q 2188 391 2477 730 
Q 2766 1069 2766 1631 
L 2766 1759 
L 2194 1759 
z
M 3341 1997 
L 3341 0 
L 2766 0 
L 2766 531 
Q 2569 213 2275 61 
Q 1981 -91 1556 -91 
Q 1019 -91 701 211 
Q 384 513 384 1019 
Q 384 1609 779 1909 
Q 1175 2209 1959 2209 
L 2766 2209 
L 2766 2266 
Q 2766 2663 2505 2880 
Q 2244 3097 1772 3097 
Q 1472 3097 1187 3025 
Q 903 2953 641 2809 
L 641 3341 
Q 956 3463 1253 3523 
Q 1550 3584 1831 3584 
Q 2591 3584 2966 3190 
Q 3341 2797 3341 1997 
z
" transform="scale(0.015625)"/>
       <path id="DejaVuSans-6e" d="M 3513 2113 
L 3513 0 
L 2938 0 
L 2938 2094 
Q 2938 2591 2744 2837 
Q 2550 3084 2163 3084 
Q 1697 3084 1428 2787 
Q 1159 2491 1159 1978 
L 1159 0 
L 581 0 
L 581 3500 
L 1159 3500 
L 1159 2956 
Q 1366 3272 1645 3428 
Q 1925 3584 2291 3584 
Q 2894 3584 3203 3211 
Q 3513 2838 3513 2113 
z
" transform="scale(0.015625)"/>
      </defs>
      <use xlink:href="#DejaVuSans-4d"/>
      <use xlink:href="#DejaVuSans-65" transform="translate(86.279297 0)"/>
      <use xlink:href="#DejaVuSans-61" transform="translate(147.802734 0)"/>
      <use xlink:href="#DejaVuSans-6e" transform="translate(209.082031 0)"/>
     </g>
    </g>
    <g id="patch_8">
     <path d="M 173.295445 35.209281 
L 201.295445 35.209281 
L 201.295445 25.409281 
L 173.295445 25.409281 
z
" style="fill: #1f77b4; fill-opacity: 0.5"/>
    </g>
    <g id="text_6">
     <!-- Confidence -->
     <g transform="translate(212.495445 35.209281) scale(0.14 -0.14)">
      <defs>
       <path id="DejaVuSans-43" d="M 4122 4306 
L 4122 3641 
Q 3803 3938 3442 4084 
Q 3081 4231 2675 4231 
Q 1875 4231 1450 3742 
Q 1025 3253 1025 2328 
Q 1025 1406 1450 917 
Q 1875 428 2675 428 
Q 3081 428 3442 575 
Q 3803 722 4122 1019 
L 4122 359 
Q 3791 134 3420 21 
Q 3050 -91 2638 -91 
Q 1578 -91 968 557 
Q 359 1206 359 2328 
Q 359 3453 968 4101 
Q 1578 4750 2638 4750 
Q 3056 4750 3426 4639 
Q 3797 4528 4122 4306 
z
" transform="scale(0.015625)"/>
       <path id="DejaVuSans-6f" d="M 1959 3097 
Q 1497 3097 1228 2736 
Q 959 2375 959 1747 
Q 959 1119 1226 758 
Q 1494 397 1959 397 
Q 2419 397 2687 759 
Q 2956 1122 2956 1747 
Q 2956 2369 2687 2733 
Q 2419 3097 1959 3097 
z
M 1959 3584 
Q 2709 3584 3137 3096 
Q 3566 2609 3566 1747 
Q 3566 888 3137 398 
Q 2709 -91 1959 -91 
Q 1206 -91 779 398 
Q 353 888 353 1747 
Q 353 2609 779 3096 
Q 1206 3584 1959 3584 
z
" transform="scale(0.015625)"/>
       <path id="DejaVuSans-66" d="M 2375 4863 
L 2375 4384 
L 1825 4384 
Q 1516 4384 1395 4259 
Q 1275 4134 1275 3809 
L 1275 3500 
L 2222 3500 
L 2222 3053 
L 1275 3053 
L 1275 0 
L 697 0 
L 697 3053 
L 147 3053 
L 147 3500 
L 697 3500 
L 697 3744 
Q 697 4328 969 4595 
Q 1241 4863 1831 4863 
L 2375 4863 
z
" transform="scale(0.015625)"/>
       <path id="DejaVuSans-69" d="M 603 3500 
L 1178 3500 
L 1178 0 
L 603 0 
L 603 3500 
z
M 603 4863 
L 1178 4863 
L 1178 4134 
L 603 4134 
L 603 4863 
z
" transform="scale(0.015625)"/>
       <path id="DejaVuSans-64" d="M 2906 2969 
L 2906 4863 
L 3481 4863 
L 3481 0 
L 2906 0 
L 2906 525 
Q 2725 213 2448 61 
Q 2172 -91 1784 -91 
Q 1150 -91 751 415 
Q 353 922 353 1747 
Q 353 2572 751 3078 
Q 1150 3584 1784 3584 
Q 2172 3584 2448 3432 
Q 2725 3281 2906 2969 
z
M 947 1747 
Q 947 1113 1208 752 
Q 1469 391 1925 391 
Q 2381 391 2643 752 
Q 2906 1113 2906 1747 
Q 2906 2381 2643 2742 
Q 2381 3103 1925 3103 
Q 1469 3103 1208 2742 
Q 947 2381 947 1747 
z
" transform="scale(0.015625)"/>
       <path id="DejaVuSans-63" d="M 3122 3366 
L 3122 2828 
Q 2878 2963 2633 3030 
Q 2388 3097 2138 3097 
Q 1578 3097 1268 2742 
Q 959 2388 959 1747 
Q 959 1106 1268 751 
Q 1578 397 2138 397 
Q 2388 397 2633 464 
Q 2878 531 3122 666 
L 3122 134 
Q 2881 22 2623 -34 
Q 2366 -91 2075 -91 
Q 1284 -91 818 406 
Q 353 903 353 1747 
Q 353 2603 823 3093 
Q 1294 3584 2113 3584 
Q 2378 3584 2631 3529 
Q 2884 3475 3122 3366 
z
" transform="scale(0.015625)"/>
      </defs>
      <use xlink:href="#DejaVuSans-43"/>
      <use xlink:href="#DejaVuSans-6f" transform="translate(69.824219 0)"/>
      <use xlink:href="#DejaVuSans-6e" transform="translate(131.005859 0)"/>
      <use xlink:href="#DejaVuSans-66" transform="translate(194.384766 0)"/>
      <use xlink:href="#DejaVuSans-69" transform="translate(229.589844 0)"/>
      <use xlink:href="#DejaVuSans-64" transform="translate(257.373047 0)"/>
      <use xlink:href="#DejaVuSans-65" transform="translate(320.849609 0)"/>
      <use xlink:href="#DejaVuSans-6e" transform="translate(382.373047 0)"/>
      <use xlink:href="#DejaVuSans-63" transform="translate(445.751953 0)"/>
      <use xlink:href="#DejaVuSans-65" transform="translate(500.732422 0)"/>
     </g>
    </g>
    <g id="line2d_15">
     <path d="M 319.21482 30.309281 
L 333.21482 30.309281 
L 347.21482 30.309281 
" style="fill: none; stroke-dasharray: 5.55,2.4; stroke-dashoffset: 0; stroke: #ff0000; stroke-width: 1.5"/>
    </g>
    <g id="text_7">
     <!-- True -->
     <g transform="translate(358.41482 35.209281) scale(0.14 -0.14)">
      <defs>
       <path id="DejaVuSans-54" d="M -19 4666 
L 3928 4666 
L 3928 4134 
L 2272 4134 
L 2272 0 
L 1638 0 
L 1638 4134 
L -19 4134 
L -19 4666 
z
" transform="scale(0.015625)"/>
       <path id="DejaVuSans-72" d="M 2631 2963 
Q 2534 3019 2420 3045 
Q 2306 3072 2169 3072 
Q 1681 3072 1420 2755 
Q 1159 2438 1159 1844 
L 1159 0 
L 581 0 
L 581 3500 
L 1159 3500 
L 1159 2956 
Q 1341 3275 1631 3429 
Q 1922 3584 2338 3584 
Q 2397 3584 2469 3576 
Q 2541 3569 2628 3553 
L 2631 2963 
z
" transform="scale(0.015625)"/>
       <path id="DejaVuSans-75" d="M 544 1381 
L 544 3500 
L 1119 3500 
L 1119 1403 
Q 1119 906 1312 657 
Q 1506 409 1894 409 
Q 2359 409 2629 706 
Q 2900 1003 2900 1516 
L 2900 3500 
L 3475 3500 
L 3475 0 
L 2900 0 
L 2900 538 
Q 2691 219 2414 64 
Q 2138 -91 1772 -91 
Q 1169 -91 856 284 
Q 544 659 544 1381 
z
M 1991 3584 
L 1991 3584 
z
" transform="scale(0.015625)"/>
      </defs>
      <use xlink:href="#DejaVuSans-54"/>
      <use xlink:href="#DejaVuSans-72" transform="translate(46.333984 0)"/>
      <use xlink:href="#DejaVuSans-75" transform="translate(87.447266 0)"/>
      <use xlink:href="#DejaVuSans-65" transform="translate(150.826172 0)"/>
     </g>
    </g>
    <g id="line2d_16">
     <g>
      <use xlink:href="#m8b41417855" x="430.142945" y="30.309281" style="stroke: #000000; stroke-linejoin: bevel"/>
     </g>
    </g>
    <g id="text_8">
     <!-- Observations -->
     <g transform="translate(455.342945 35.209281) scale(0.14 -0.14)">
      <defs>
       <path id="DejaVuSans-4f" d="M 2522 4238 
Q 1834 4238 1429 3725 
Q 1025 3213 1025 2328 
Q 1025 1447 1429 934 
Q 1834 422 2522 422 
Q 3209 422 3611 934 
Q 4013 1447 4013 2328 
Q 4013 3213 3611 3725 
Q 3209 4238 2522 4238 
z
M 2522 4750 
Q 3503 4750 4090 4092 
Q 4678 3434 4678 2328 
Q 4678 1225 4090 567 
Q 3503 -91 2522 -91 
Q 1538 -91 948 565 
Q 359 1222 359 2328 
Q 359 3434 948 4092 
Q 1538 4750 2522 4750 
z
" transform="scale(0.015625)"/>
       <path id="DejaVuSans-62" d="M 3116 1747 
Q 3116 2381 2855 2742 
Q 2594 3103 2138 3103 
Q 1681 3103 1420 2742 
Q 1159 2381 1159 1747 
Q 1159 1113 1420 752 
Q 1681 391 2138 391 
Q 2594 391 2855 752 
Q 3116 1113 3116 1747 
z
M 1159 2969 
Q 1341 3281 1617 3432 
Q 1894 3584 2278 3584 
Q 2916 3584 3314 3078 
Q 3713 2572 3713 1747 
Q 3713 922 3314 415 
Q 2916 -91 2278 -91 
Q 1894 -91 1617 61 
Q 1341 213 1159 525 
L 1159 0 
L 581 0 
L 581 4863 
L 1159 4863 
L 1159 2969 
z
" transform="scale(0.015625)"/>
       <path id="DejaVuSans-73" d="M 2834 3397 
L 2834 2853 
Q 2591 2978 2328 3040 
Q 2066 3103 1784 3103 
Q 1356 3103 1142 2972 
Q 928 2841 928 2578 
Q 928 2378 1081 2264 
Q 1234 2150 1697 2047 
L 1894 2003 
Q 2506 1872 2764 1633 
Q 3022 1394 3022 966 
Q 3022 478 2636 193 
Q 2250 -91 1575 -91 
Q 1294 -91 989 -36 
Q 684 19 347 128 
L 347 722 
Q 666 556 975 473 
Q 1284 391 1588 391 
Q 1994 391 2212 530 
Q 2431 669 2431 922 
Q 2431 1156 2273 1281 
Q 2116 1406 1581 1522 
L 1381 1569 
Q 847 1681 609 1914 
Q 372 2147 372 2553 
Q 372 3047 722 3315 
Q 1072 3584 1716 3584 
Q 2034 3584 2315 3537 
Q 2597 3491 2834 3397 
z
" transform="scale(0.015625)"/>
       <path id="DejaVuSans-76" d="M 191 3500 
L 800 3500 
L 1894 563 
L 2988 3500 
L 3597 3500 
L 2284 0 
L 1503 0 
L 191 3500 
z
" transform="scale(0.015625)"/>
       <path id="DejaVuSans-74" d="M 1172 4494 
L 1172 3500 
L 2356 3500 
L 2356 3053 
L 1172 3053 
L 1172 1153 
Q 1172 725 1289 603 
Q 1406 481 1766 481 
L 2356 481 
L 2356 0 
L 1766 0 
Q 1100 0 847 248 
Q 594 497 594 1153 
L 594 3053 
L 172 3053 
L 172 3500 
L 594 3500 
L 594 4494 
L 1172 4494 
z
" transform="scale(0.015625)"/>
      </defs>
      <use xlink:href="#DejaVuSans-4f"/>
      <use xlink:href="#DejaVuSans-62" transform="translate(78.710938 0)"/>
      <use xlink:href="#DejaVuSans-73" transform="translate(142.1875 0)"/>
      <use xlink:href="#DejaVuSans-65" transform="translate(194.287109 0)"/>
      <use xlink:href="#DejaVuSans-72" transform="translate(255.810547 0)"/>
      <use xlink:href="#DejaVuSans-76" transform="translate(296.923828 0)"/>
      <use xlink:href="#DejaVuSans-61" transform="translate(356.103516 0)"/>
      <use xlink:href="#DejaVuSans-74" transform="translate(417.382812 0)"/>
      <use xlink:href="#DejaVuSans-69" transform="translate(456.591797 0)"/>
      <use xlink:href="#DejaVuSans-6f" transform="translate(484.375 0)"/>
      <use xlink:href="#DejaVuSans-6e" transform="translate(545.556641 0)"/>
      <use xlink:href="#DejaVuSans-73" transform="translate(608.935547 0)"/>
     </g>
    </g>
   </g>
  </g>
  <g id="axes_2">
   <g id="patch_9">
    <path d="M 93.764 307.575686 
L 542.538 307.575686 
L 542.538 181.451373 
L 93.764 181.451373 
z
" style="fill: #ffffff"/>
   </g>
   <g id="FillBetweenPolyCollection_2">
    <path d="M 114.162818 234.972373 
L 114.162818 235.026254 
L 118.283792 235.699488 
L 122.404765 236.421166 
L 126.525738 237.156667 
L 130.646712 237.895473 
L 134.767685 238.627307 
L 138.888658 239.342146 
L 143.009632 240.030378 
L 147.130605 240.682974 
L 151.251579 241.291657 
L 155.372552 241.849065 
L 159.493525 242.348886 
L 163.614499 242.785991 
L 167.735472 243.156527 
L 171.856445 243.458002 
L 175.977419 243.689326 
L 180.098392 243.85084 
L 184.219365 243.944299 
L 188.340339 243.972837 
L 192.461312 243.940899 
L 196.582286 243.854148 
L 200.703259 243.719344 
L 204.824232 243.544207 
L 208.945206 243.337261 
L 213.066179 243.107663 
L 217.187152 242.865021 
L 221.308126 242.619216 
L 225.429099 242.38021 
L 229.550073 242.157863 
L 233.671046 241.961759 
L 237.792019 241.801035 
L 241.912993 241.684223 
L 246.033966 241.619113 
L 250.154939 241.612625 
L 254.275913 241.670702 
L 258.396886 241.798226 
L 262.51786 241.998947 
L 266.638833 242.275448 
L 270.759806 242.629115 
L 274.88078 243.060152 
L 279.001753 243.567617 
L 283.122726 244.149495 
L 287.2437 244.802834 
L 291.364673 245.523969 
L 295.485646 246.308899 
L 299.60662 247.153978 
L 303.727593 248.057227 
L 307.848567 249.020883 
L 311.96954 250.055766 
L 316.090513 251.184494 
L 320.211487 252.428511 
L 324.33246 253.775521 
L 328.453433 255.179624 
L 332.574407 256.594172 
L 336.69538 257.985012 
L 340.816354 259.327548 
L 344.937327 260.602641 
L 349.0583 261.794313 
L 353.179274 262.888686 
L 357.300247 263.873513 
L 361.42122 264.738018 
L 365.542194 265.472855 
L 369.663167 266.070141 
L 373.78414 266.523513 
L 377.905114 266.828186 
L 382.026087 266.981017 
L 386.147061 266.980539 
L 390.268034 266.826994 
L 394.389007 266.52233 
L 398.509981 266.070182 
L 402.630954 265.475825 
L 406.751927 264.746102 
L 410.872901 263.889327 
L 414.993874 262.915161 
L 419.114848 261.83447 
L 423.235821 260.659159 
L 427.356794 259.40199 
L 431.477768 258.076391 
L 435.598741 256.696247 
L 439.719714 255.275695 
L 443.840688 253.82891 
L 447.961661 252.369899 
L 452.082635 250.912303 
L 456.203608 249.469201 
L 460.324581 248.052941 
L 464.445555 246.674981 
L 468.566528 245.345753 
L 472.687501 244.074549 
L 476.808475 242.869432 
L 480.929448 241.737179 
L 485.050421 240.68324 
L 489.171395 239.711735 
L 493.292368 238.825474 
L 497.413342 238.026003 
L 501.534315 237.313673 
L 505.655288 236.687733 
L 509.776262 236.146441 
L 513.897235 235.687212 
L 518.018208 235.306926 
L 522.139182 235.0261 
L 522.139182 234.972218 
L 522.139182 234.972218 
L 518.018208 234.649597 
L 513.897235 234.380199 
L 509.776262 234.19549 
L 505.655288 234.101892 
L 501.534315 234.104701 
L 497.413342 234.208147 
L 493.292368 234.415321 
L 489.171395 234.728081 
L 485.050421 235.146987 
L 480.929448 235.671241 
L 476.808475 236.298646 
L 472.687501 237.025595 
L 468.566528 237.847069 
L 464.445555 238.756672 
L 460.324581 239.746685 
L 456.203608 240.808141 
L 452.082635 241.930934 
L 447.961661 243.103945 
L 443.840688 244.31519 
L 439.719714 245.551988 
L 435.598741 246.801147 
L 431.477768 248.049154 
L 427.356794 249.282383 
L 423.235821 250.487298 
L 419.114848 251.650658 
L 414.993874 252.759721 
L 410.872901 253.802431 
L 406.751927 254.767597 
L 402.630954 255.645058 
L 398.509981 256.42582 
L 394.389007 257.102184 
L 390.268034 257.667835 
L 386.147061 258.117917 
L 382.026087 258.449082 
L 377.905114 258.6595 
L 373.78414 258.748858 
L 369.663167 258.718319 
L 365.542194 258.57046 
L 361.42122 258.309177 
L 357.300247 257.939563 
L 353.179274 257.467741 
L 349.0583 256.900649 
L 344.937327 256.245731 
L 340.816354 255.510484 
L 336.69538 254.701692 
L 332.574407 253.824055 
L 328.453433 252.877582 
L 324.33246 251.853176 
L 320.211487 250.729392 
L 316.090513 249.485374 
L 311.96954 248.133421 
L 307.848567 246.71884 
L 303.727593 245.28711 
L 299.60662 243.870659 
L 295.485646 242.491835 
L 291.364673 241.16706 
L 287.2437 239.90917 
L 283.122726 238.72855 
L 279.001753 237.633666 
L 274.88078 236.631311 
L 270.759806 235.726719 
L 266.638833 234.923625 
L 262.51786 234.224293 
L 258.396886 233.62954 
L 254.275913 233.138767 
L 250.154939 232.750003 
L 246.033966 232.459953 
L 241.912993 232.264077 
L 237.792019 232.156673 
L 233.671046 232.130992 
L 229.550073 232.179358 
L 225.429099 232.293314 
L 221.308126 232.463776 
L 217.187152 232.681209 
L 213.066179 232.935802 
L 208.945206 233.217654 
L 204.824232 233.516971 
L 200.703259 233.824244 
L 196.582286 234.130442 
L 192.461312 234.427179 
L 188.340339 234.706882 
L 184.219365 234.96293 
L 180.098392 235.189781 
L 175.977419 235.383071 
L 171.856445 235.539693 
L 167.735472 235.657843 
L 163.614499 235.737037 
L 159.493525 235.7781 
L 155.372552 235.783126 
L 151.251579 235.755405 
L 147.130605 235.69932 
L 143.009632 235.620225 
L 138.888658 235.524291 
L 134.767685 235.418334 
L 130.646712 235.309632 
L 126.525738 235.205717 
L 122.404765 235.114153 
L 118.283792 235.04216 
L 114.162818 234.972373 
z
" clip-path="url(#p2710b5a8f6)" style="fill: #1f77b4; fill-opacity: 0.5"/>
   </g>
   <g id="matplotlib.axis_3">
    <g id="xtick_8">
     <g id="line2d_17">
      <g>
       <use xlink:href="#m54de9fd0cb" x="114.162818" y="307.575686" style="stroke: #000000; stroke-width: 0.8"/>
      </g>
     </g>
    </g>
    <g id="xtick_9">
     <g id="line2d_18">
      <g>
       <use xlink:href="#m54de9fd0cb" x="182.158879" y="307.575686" style="stroke: #000000; stroke-width: 0.8"/>
      </g>
     </g>
    </g>
    <g id="xtick_10">
     <g id="line2d_19">
      <g>
       <use xlink:href="#m54de9fd0cb" x="250.154939" y="307.575686" style="stroke: #000000; stroke-width: 0.8"/>
      </g>
     </g>
    </g>
    <g id="xtick_11">
     <g id="line2d_20">
      <g>
       <use xlink:href="#m54de9fd0cb" x="318.151" y="307.575686" style="stroke: #000000; stroke-width: 0.8"/>
      </g>
     </g>
    </g>
    <g id="xtick_12">
     <g id="line2d_21">
      <g>
       <use xlink:href="#m54de9fd0cb" x="386.147061" y="307.575686" style="stroke: #000000; stroke-width: 0.8"/>
      </g>
     </g>
    </g>
    <g id="xtick_13">
     <g id="line2d_22">
      <g>
       <use xlink:href="#m54de9fd0cb" x="454.143121" y="307.575686" style="stroke: #000000; stroke-width: 0.8"/>
      </g>
     </g>
    </g>
    <g id="xtick_14">
     <g id="line2d_23">
      <g>
       <use xlink:href="#m54de9fd0cb" x="522.139182" y="307.575686" style="stroke: #000000; stroke-width: 0.8"/>
      </g>
     </g>
    </g>
   </g>
   <g id="matplotlib.axis_4">
    <g id="ytick_4">
     <g id="line2d_24">
      <g>
       <use xlink:href="#m0adedd4289" x="93.764" y="292.150941" style="stroke: #000000; stroke-width: 0.8"/>
      </g>
     </g>
     <g id="text_9">
      <!-- −2.5 -->
      <g transform="translate(43.054938 298.989535) scale(0.18 -0.18)">
       <use xlink:href="#DejaVuSans-2212"/>
       <use xlink:href="#DejaVuSans-32" transform="translate(83.789062 0)"/>
       <use xlink:href="#DejaVuSans-2e" transform="translate(147.412109 0)"/>
       <use xlink:href="#DejaVuSans-35" transform="translate(179.199219 0)"/>
      </g>
     </g>
    </g>
    <g id="ytick_5">
     <g id="line2d_25">
      <g>
       <use xlink:href="#m0adedd4289" x="93.764" y="244.524505" style="stroke: #000000; stroke-width: 0.8"/>
      </g>
     </g>
     <g id="text_10">
      <!-- 0.0 -->
      <g transform="translate(58.138375 251.363099) scale(0.18 -0.18)">
       <use xlink:href="#DejaVuSans-30"/>
       <use xlink:href="#DejaVuSans-2e" transform="translate(63.623047 0)"/>
       <use xlink:href="#DejaVuSans-30" transform="translate(95.410156 0)"/>
      </g>
     </g>
    </g>
    <g id="ytick_6">
     <g id="line2d_26">
      <g>
       <use xlink:href="#m0adedd4289" x="93.764" y="196.89807" style="stroke: #000000; stroke-width: 0.8"/>
      </g>
     </g>
     <g id="text_11">
      <!-- 2.5 -->
      <g transform="translate(58.138375 203.736663) scale(0.18 -0.18)">
       <use xlink:href="#DejaVuSans-32"/>
       <use xlink:href="#DejaVuSans-2e" transform="translate(63.623047 0)"/>
       <use xlink:href="#DejaVuSans-35" transform="translate(95.410156 0)"/>
      </g>
     </g>
    </g>
    <g id="text_12">
     <!-- $\theta_2$ -->
     <g transform="translate(35.3115 254.323529) rotate(-90) scale(0.18 -0.18)">
      <use xlink:href="#DejaVuSans-Oblique-3b8" transform="translate(0 0.234375)"/>
      <use xlink:href="#DejaVuSans-32" transform="translate(61.181641 -16.171875) scale(0.7)"/>
     </g>
    </g>
   </g>
   <g id="line2d_27">
    <path d="M 114.162818 234.999313 
L 118.283792 235.370824 
L 122.404765 235.76766 
L 126.525738 236.181192 
L 130.646712 236.602552 
L 134.767685 237.02282 
L 138.888658 237.433218 
L 143.009632 237.825302 
L 147.130605 238.191147 
L 151.251579 238.523531 
L 155.372552 238.816095 
L 159.493525 239.063493 
L 163.614499 239.261514 
L 167.735472 239.407185 
L 171.856445 239.498847 
L 175.977419 239.536199 
L 180.098392 239.52031 
L 184.219365 239.453615 
L 188.340339 239.33986 
L 192.461312 239.184039 
L 196.582286 238.992295 
L 200.703259 238.771794 
L 204.824232 238.530589 
L 208.945206 238.277458 
L 213.066179 238.021732 
L 217.187152 237.773115 
L 221.308126 237.541496 
L 225.429099 237.336762 
L 229.550073 237.168611 
L 233.671046 237.046376 
L 237.792019 236.978854 
L 241.912993 236.97415 
L 246.033966 237.039533 
L 250.154939 237.181314 
L 254.275913 237.404735 
L 258.396886 237.713883 
L 262.51786 238.11162 
L 266.638833 238.599537 
L 270.759806 239.177917 
L 274.88078 239.845732 
L 279.001753 240.600642 
L 283.122726 241.439022 
L 287.2437 242.356002 
L 291.364673 243.345515 
L 295.485646 244.400367 
L 299.60662 245.512318 
L 303.727593 246.672169 
L 307.848567 247.869861 
L 311.96954 249.094594 
L 316.090513 250.334934 
L 320.211487 251.578951 
L 324.33246 252.814349 
L 328.453433 254.028603 
L 332.574407 255.209114 
L 336.69538 256.343352 
L 340.816354 257.419016 
L 344.937327 258.424186 
L 349.0583 259.347481 
L 353.179274 260.178214 
L 357.300247 260.906538 
L 361.42122 261.523598 
L 365.542194 262.021657 
L 369.663167 262.39423 
L 373.78414 262.636185 
L 377.905114 262.743843 
L 382.026087 262.715049 
L 386.147061 262.549228 
L 390.268034 262.247414 
L 394.389007 261.812257 
L 398.509981 261.248001 
L 402.630954 260.560441 
L 406.751927 259.756849 
L 410.872901 258.845879 
L 414.993874 257.837441 
L 419.114848 256.742564 
L 423.235821 255.573229 
L 427.356794 254.342187 
L 431.477768 253.062773 
L 435.598741 251.748697 
L 439.719714 250.413841 
L 443.840688 249.07205 
L 447.961661 247.736922 
L 452.082635 246.421619 
L 456.203608 245.138671 
L 460.324581 243.899813 
L 464.445555 242.715827 
L 468.566528 241.596411 
L 472.687501 240.550072 
L 476.808475 239.584039 
L 480.929448 238.70421 
L 485.050421 237.915113 
L 489.171395 237.219908 
L 493.292368 236.620397 
L 497.413342 236.117075 
L 501.534315 235.709187 
L 505.655288 235.394812 
L 509.776262 235.170965 
L 513.897235 235.033706 
L 518.018208 234.978262 
L 522.139182 234.999159 
" clip-path="url(#p2710b5a8f6)" style="fill: none; stroke: #0000ff; stroke-width: 1.5; stroke-linecap: square"/>
   </g>
   <g id="line2d_28">
    <path d="M 114.162818 244.524505 
L 118.283792 248.68333 
L 122.404765 252.818435 
L 126.525738 256.906312 
L 130.646712 260.923875 
L 134.767685 264.848655 
L 138.888658 268.659007 
L 143.009632 272.334288 
L 147.130605 275.855031 
L 151.251579 279.203109 
L 155.372552 282.361873 
L 159.493525 285.316277 
L 163.614499 288.052989 
L 167.735472 290.560469 
L 171.856445 292.82904 
L 175.977419 294.850926 
L 180.098392 296.620274 
L 184.219365 298.133153 
L 188.340339 299.387531 
L 192.461312 300.383227 
L 196.582286 301.121852 
L 200.703259 301.606723 
L 204.824232 301.842763 
L 208.945206 301.836383 
L 213.066179 301.595355 
L 217.187152 301.128666 
L 221.308126 300.446369 
L 225.429099 299.559421 
L 229.550073 298.479523 
L 233.671046 297.218948 
L 237.792019 295.790377 
L 241.912993 294.206735 
L 246.033966 292.481028 
L 250.154939 290.626191 
L 254.275913 288.654947 
L 258.396886 286.579667 
L 262.51786 284.412254 
L 266.638833 282.164037 
L 270.759806 279.845674 
L 274.88078 277.467087 
L 279.001753 275.037394 
L 283.122726 272.564881 
L 287.2437 270.056972 
L 291.364673 267.520231 
L 295.485646 264.960373 
L 299.60662 262.3823 
L 303.727593 259.790148 
L 307.848567 257.187346 
L 311.96954 254.576698 
L 316.090513 251.960469 
L 320.211487 249.340485 
L 324.33246 246.718239 
L 328.453433 244.095009 
L 332.574407 241.471969 
L 336.69538 238.850316 
L 340.816354 236.231383 
L 344.937327 233.616761 
L 349.0583 231.008408 
L 353.179274 228.408756 
L 357.300247 225.820803 
L 361.42122 223.248204 
L 365.542194 220.695336 
L 369.663167 218.167365 
L 373.78414 215.670282 
L 377.905114 213.21093 
L 382.026087 210.797019 
L 386.147061 208.437107 
L 390.268034 206.140583 
L 394.389007 203.917617 
L 398.509981 201.779095 
L 402.630954 199.736545 
L 406.751927 197.802035 
L 410.872901 195.988067 
L 414.993874 194.307447 
L 419.114848 192.773151 
L 423.235821 191.398174 
L 427.356794 190.19538 
L 431.477768 189.177335 
L 435.598741 188.356144 
L 439.719714 187.74328 
L 443.840688 187.349424 
L 447.961661 187.184296 
L 452.082635 187.256502 
L 456.203608 187.573384 
L 460.324581 188.140879 
L 464.445555 188.963396 
L 468.566528 190.043704 
L 472.687501 191.382835 
L 476.808475 192.980009 
L 480.929448 194.832575 
L 485.050421 196.935974 
L 489.171395 199.283723 
L 493.292368 201.867421 
L 497.413342 204.676774 
L 501.534315 207.699647 
L 505.655288 210.922138 
L 509.776262 214.328662 
L 513.897235 217.902072 
L 518.018208 221.623785 
L 522.139182 225.473931 
" clip-path="url(#p2710b5a8f6)" style="fill: none; stroke-dasharray: 5.55,2.4; stroke-dashoffset: 0; stroke: #ff0000; stroke-width: 1.5"/>
   </g>
   <g id="line2d_29">
    <g clip-path="url(#p2710b5a8f6)">
     <use xlink:href="#m8b41417855" x="114.162818" y="244.524505" style="stroke: #000000; stroke-linejoin: bevel"/>
     <use xlink:href="#m8b41417855" x="522.139182" y="225.473931" style="stroke: #000000; stroke-linejoin: bevel"/>
    </g>
   </g>
   <g id="patch_10">
    <path d="M 93.764 307.575686 
L 93.764 181.451373 
" style="fill: none; stroke: #000000; stroke-width: 0.8; stroke-linejoin: miter; stroke-linecap: square"/>
   </g>
   <g id="patch_11">
    <path d="M 542.538 307.575686 
L 542.538 181.451373 
" style="fill: none; stroke: #000000; stroke-width: 0.8; stroke-linejoin: miter; stroke-linecap: square"/>
   </g>
   <g id="patch_12">
    <path d="M 93.764 307.575686 
L 542.538 307.575686 
" style="fill: none; stroke: #000000; stroke-width: 0.8; stroke-linejoin: miter; stroke-linecap: square"/>
   </g>
   <g id="patch_13">
    <path d="M 93.764 181.451373 
L 542.538 181.451373 
" style="fill: none; stroke: #000000; stroke-width: 0.8; stroke-linejoin: miter; stroke-linecap: square"/>
   </g>
  </g>
  <g id="axes_3">
   <g id="patch_14">
    <path d="M 93.764 439 
L 542.538 439 
L 542.538 312.875686 
L 93.764 312.875686 
z
" style="fill: #ffffff"/>
   </g>
   <g id="FillBetweenPolyCollection_3">
    <path d="M 114.162818 372.635369 
L 114.162818 378.963885 
L 118.283792 373.731967 
L 122.404765 368.59029 
L 126.525738 363.357302 
L 130.646712 358.010267 
L 134.767685 352.626928 
L 138.888658 347.331361 
L 143.009632 342.267519 
L 147.130605 337.585799 
L 151.251579 333.434385 
L 155.372552 329.951455 
L 159.493525 327.256007 
L 163.614499 325.437174 
L 167.735472 324.545955 
L 171.856445 324.595222 
L 175.977419 325.568405 
L 180.098392 327.430294 
L 184.219365 330.134319 
L 188.340339 333.625651 
L 192.461312 337.841952 
L 196.582286 342.713268 
L 200.703259 348.161715 
L 204.824232 354.101093 
L 208.945206 360.436514 
L 213.066179 367.064353 
L 217.187152 373.873096 
L 221.308126 380.745606 
L 225.429099 387.562796 
L 229.550073 394.20801 
L 233.671046 400.571206 
L 237.792019 406.552268 
L 241.912993 412.063208 
L 246.033966 417.029309 
L 250.154939 421.389381 
L 254.275913 425.095293 
L 258.396886 428.111005 
L 262.51786 430.411304 
L 266.638833 431.980531 
L 270.759806 432.811553 
L 274.88078 432.905121 
L 279.001753 432.269633 
L 283.122726 430.921142 
L 287.2437 428.883418 
L 291.364673 426.187914 
L 295.485646 422.873525 
L 299.60662 418.986151 
L 303.727593 414.578066 
L 307.848567 409.70716 
L 311.96954 404.436111 
L 316.090513 398.831567 
L 320.211487 392.963442 
L 324.33246 386.904394 
L 328.453433 380.729524 
L 332.574407 374.516262 
L 336.69538 368.344335 
L 340.816354 362.295672 
L 344.937327 356.454112 
L 349.0583 350.904798 
L 353.179274 345.733169 
L 357.300247 341.023513 
L 361.42122 336.857089 
L 365.542194 333.30988 
L 369.663167 330.450123 
L 373.78414 328.33589 
L 377.905114 327.012984 
L 382.026087 326.51343 
L 386.147061 326.854655 
L 390.268034 328.039314 
L 394.389007 330.055615 
L 398.509981 332.877956 
L 402.630954 336.467706 
L 406.751927 340.773994 
L 410.872901 345.734335 
L 414.993874 351.274917 
L 419.114848 357.31048 
L 423.235821 363.743953 
L 427.356794 370.466422 
L 431.477768 377.358242 
L 435.598741 384.291853 
L 439.719714 391.13615 
L 443.840688 397.76176 
L 447.961661 404.046464 
L 452.082635 409.880312 
L 456.203608 415.170196 
L 460.324581 419.843617 
L 464.445555 423.850871 
L 468.566528 427.164073 
L 472.687501 429.77114 
L 476.808475 431.665327 
L 480.929448 432.835983 
L 485.050421 433.267077 
L 489.171395 432.943179 
L 493.292368 431.857086 
L 497.413342 430.015285 
L 501.534315 427.441491 
L 505.655288 424.180652 
L 509.776262 420.30747 
L 513.897235 415.947824 
L 518.018208 411.327936 
L 522.139182 406.827876 
L 522.139182 400.49936 
L 522.139182 400.49936 
L 518.018208 405.062502 
L 513.897235 409.068742 
L 509.776262 412.725882 
L 505.655288 416.089881 
L 501.534315 419.122438 
L 497.413342 421.744283 
L 493.292368 423.860725 
L 489.171395 425.374117 
L 485.050421 426.191538 
L 480.929448 426.231613 
L 476.808475 425.432728 
L 472.687501 423.762806 
L 468.566528 421.226728 
L 464.445555 417.865525 
L 460.324581 413.746992 
L 456.203608 408.954242 
L 452.082635 403.57788 
L 447.961661 397.712415 
L 443.840688 391.455125 
L 439.719714 384.905822 
L 435.598741 378.166916 
L 431.477768 371.343589 
L 427.356794 364.544023 
L 423.235821 357.879353 
L 419.114848 351.462772 
L 414.993874 345.407255 
L 410.872901 339.821934 
L 406.751927 334.807806 
L 402.630954 330.453695 
L 398.509981 326.833131 
L 394.389007 324.002413 
L 390.268034 321.99978 
L 386.147061 320.845556 
L 382.026087 320.543075 
L 377.905114 321.080196 
L 373.78414 322.431176 
L 369.663167 324.558626 
L 365.542194 327.415298 
L 361.42122 330.945526 
L 357.300247 335.08632 
L 353.179274 339.768234 
L 349.0583 344.916199 
L 344.937327 350.450448 
L 340.816354 356.287609 
L 336.69538 362.34196 
L 332.574407 368.526798 
L 328.453433 374.755854 
L 324.33246 380.944666 
L 320.211487 387.011819 
L 316.090513 392.879944 
L 311.96954 398.476383 
L 307.848567 403.73349 
L 303.727593 408.588601 
L 299.60662 412.983775 
L 295.485646 416.865462 
L 291.364673 420.18425 
L 287.2437 422.894819 
L 283.122726 424.956207 
L 279.001753 426.332441 
L 274.88078 426.993558 
L 270.759806 426.916971 
L 266.638833 426.089033 
L 262.51786 424.50659 
L 258.396886 422.178218 
L 254.275913 419.124938 
L 250.154939 415.380282 
L 246.033966 410.989775 
L 241.912993 406.010005 
L 237.792019 400.507443 
L 233.671046 394.557195 
L 229.550073 388.241822 
L 225.429099 381.650395 
L 221.308126 374.877944 
L 217.187152 368.025388 
L 213.066179 361.199754 
L 208.945206 354.514115 
L 204.824232 348.08644 
L 200.703259 342.036779 
L 196.582286 336.48294 
L 192.461312 331.535316 
L 188.340339 327.291602 
L 184.219365 323.831887 
L 180.098392 321.214341 
L 175.977419 319.47178 
L 171.856445 318.609876 
L 167.735472 318.60861 
L 163.614499 319.428841 
L 159.493525 321.023408 
L 155.372552 323.347086 
L 151.251579 326.358847 
L 147.130605 330.016737 
L 143.009632 334.271157 
L 138.888658 339.060359 
L 134.767685 344.307875 
L 130.646712 349.919496 
L 126.525738 355.775714 
L 122.404765 361.711208 
L 118.283792 367.466534 
L 114.162818 372.635369 
z
" clip-path="url(#p222cccf915)" style="fill: #1f77b4; fill-opacity: 0.5"/>
   </g>
   <g id="matplotlib.axis_5">
    <g id="xtick_15">
     <g id="line2d_30">
      <g>
       <use xlink:href="#m54de9fd0cb" x="114.162818" y="439" style="stroke: #000000; stroke-width: 0.8"/>
      </g>
     </g>
     <g id="text_13">
      <!-- 0 -->
      <g transform="translate(108.436568 459.677187) scale(0.18 -0.18)">
       <use xlink:href="#DejaVuSans-30"/>
      </g>
     </g>
    </g>
    <g id="xtick_16">
     <g id="line2d_31">
      <g>
       <use xlink:href="#m54de9fd0cb" x="182.158879" y="439" style="stroke: #000000; stroke-width: 0.8"/>
      </g>
     </g>
     <g id="text_14">
      <!-- 1 -->
      <g transform="translate(176.432629 459.677187) scale(0.18 -0.18)">
       <use xlink:href="#DejaVuSans-31"/>
      </g>
     </g>
    </g>
    <g id="xtick_17">
     <g id="line2d_32">
      <g>
       <use xlink:href="#m54de9fd0cb" x="250.154939" y="439" style="stroke: #000000; stroke-width: 0.8"/>
      </g>
     </g>
     <g id="text_15">
      <!-- 2 -->
      <g transform="translate(244.428689 459.677187) scale(0.18 -0.18)">
       <use xlink:href="#DejaVuSans-32"/>
      </g>
     </g>
    </g>
    <g id="xtick_18">
     <g id="line2d_33">
      <g>
       <use xlink:href="#m54de9fd0cb" x="318.151" y="439" style="stroke: #000000; stroke-width: 0.8"/>
      </g>
     </g>
     <g id="text_16">
      <!-- 3 -->
      <g transform="translate(312.42475 459.677187) scale(0.18 -0.18)">
       <defs>
        <path id="DejaVuSans-33" d="M 2597 2516 
Q 3050 2419 3304 2112 
Q 3559 1806 3559 1356 
Q 3559 666 3084 287 
Q 2609 -91 1734 -91 
Q 1441 -91 1130 -33 
Q 819 25 488 141 
L 488 750 
Q 750 597 1062 519 
Q 1375 441 1716 441 
Q 2309 441 2620 675 
Q 2931 909 2931 1356 
Q 2931 1769 2642 2001 
Q 2353 2234 1838 2234 
L 1294 2234 
L 1294 2753 
L 1863 2753 
Q 2328 2753 2575 2939 
Q 2822 3125 2822 3475 
Q 2822 3834 2567 4026 
Q 2313 4219 1838 4219 
Q 1578 4219 1281 4162 
Q 984 4106 628 3988 
L 628 4550 
Q 988 4650 1302 4700 
Q 1616 4750 1894 4750 
Q 2613 4750 3031 4423 
Q 3450 4097 3450 3541 
Q 3450 3153 3228 2886 
Q 3006 2619 2597 2516 
z
" transform="scale(0.015625)"/>
       </defs>
       <use xlink:href="#DejaVuSans-33"/>
      </g>
     </g>
    </g>
    <g id="xtick_19">
     <g id="line2d_34">
      <g>
       <use xlink:href="#m54de9fd0cb" x="386.147061" y="439" style="stroke: #000000; stroke-width: 0.8"/>
      </g>
     </g>
     <g id="text_17">
      <!-- 4 -->
      <g transform="translate(380.420811 459.677187) scale(0.18 -0.18)">
       <defs>
        <path id="DejaVuSans-34" d="M 2419 4116 
L 825 1625 
L 2419 1625 
L 2419 4116 
z
M 2253 4666 
L 3047 4666 
L 3047 1625 
L 3713 1625 
L 3713 1100 
L 3047 1100 
L 3047 0 
L 2419 0 
L 2419 1100 
L 313 1100 
L 313 1709 
L 2253 4666 
z
" transform="scale(0.015625)"/>
       </defs>
       <use xlink:href="#DejaVuSans-34"/>
      </g>
     </g>
    </g>
    <g id="xtick_20">
     <g id="line2d_35">
      <g>
       <use xlink:href="#m54de9fd0cb" x="454.143121" y="439" style="stroke: #000000; stroke-width: 0.8"/>
      </g>
     </g>
     <g id="text_18">
      <!-- 5 -->
      <g transform="translate(448.416871 459.677187) scale(0.18 -0.18)">
       <use xlink:href="#DejaVuSans-35"/>
      </g>
     </g>
    </g>
    <g id="xtick_21">
     <g id="line2d_36">
      <g>
       <use xlink:href="#m54de9fd0cb" x="522.139182" y="439" style="stroke: #000000; stroke-width: 0.8"/>
      </g>
     </g>
     <g id="text_19">
      <!-- 6 -->
      <g transform="translate(516.412932 459.677187) scale(0.18 -0.18)">
       <defs>
        <path id="DejaVuSans-36" d="M 2113 2584 
Q 1688 2584 1439 2293 
Q 1191 2003 1191 1497 
Q 1191 994 1439 701 
Q 1688 409 2113 409 
Q 2538 409 2786 701 
Q 3034 994 3034 1497 
Q 3034 2003 2786 2293 
Q 2538 2584 2113 2584 
z
M 3366 4563 
L 3366 3988 
Q 3128 4100 2886 4159 
Q 2644 4219 2406 4219 
Q 1781 4219 1451 3797 
Q 1122 3375 1075 2522 
Q 1259 2794 1537 2939 
Q 1816 3084 2150 3084 
Q 2853 3084 3261 2657 
Q 3669 2231 3669 1497 
Q 3669 778 3244 343 
Q 2819 -91 2113 -91 
Q 1303 -91 875 529 
Q 447 1150 447 2328 
Q 447 3434 972 4092 
Q 1497 4750 2381 4750 
Q 2619 4750 2861 4703 
Q 3103 4656 3366 4563 
z
" transform="scale(0.015625)"/>
       </defs>
       <use xlink:href="#DejaVuSans-36"/>
      </g>
     </g>
    </g>
    <g id="text_20">
     <!-- $t$ -->
     <g transform="translate(314.551 481.097812) scale(0.18 -0.18)">
      <defs>
       <path id="DejaVuSans-Oblique-74" d="M 2706 3500 
L 2619 3053 
L 1472 3053 
L 1100 1153 
Q 1081 1047 1072 975 
Q 1063 903 1063 863 
Q 1063 663 1183 572 
Q 1303 481 1569 481 
L 2150 481 
L 2053 0 
L 1503 0 
Q 991 0 739 200 
Q 488 400 488 806 
Q 488 878 497 964 
Q 506 1050 525 1153 
L 897 3053 
L 409 3053 
L 500 3500 
L 978 3500 
L 1172 4494 
L 1747 4494 
L 1556 3500 
L 2706 3500 
z
" transform="scale(0.015625)"/>
      </defs>
      <use xlink:href="#DejaVuSans-Oblique-74" transform="translate(0 0.78125)"/>
     </g>
    </g>
   </g>
   <g id="matplotlib.axis_6">
    <g id="ytick_7">
     <g id="line2d_37">
      <g>
       <use xlink:href="#m0adedd4289" x="93.764" y="429.917033" style="stroke: #000000; stroke-width: 0.8"/>
      </g>
     </g>
     <g id="text_21">
      <!-- −1 -->
      <g transform="translate(60.228063 436.755627) scale(0.18 -0.18)">
       <use xlink:href="#DejaVuSans-2212"/>
       <use xlink:href="#DejaVuSans-31" transform="translate(83.789062 0)"/>
      </g>
     </g>
    </g>
    <g id="ytick_8">
     <g id="line2d_38">
      <g>
       <use xlink:href="#m0adedd4289" x="93.764" y="376.863377" style="stroke: #000000; stroke-width: 0.8"/>
      </g>
     </g>
     <g id="text_22">
      <!-- 0 -->
      <g transform="translate(75.3115 383.701971) scale(0.18 -0.18)">
       <use xlink:href="#DejaVuSans-30"/>
      </g>
     </g>
    </g>
    <g id="ytick_9">
     <g id="line2d_39">
      <g>
       <use xlink:href="#m0adedd4289" x="93.764" y="323.809722" style="stroke: #000000; stroke-width: 0.8"/>
      </g>
     </g>
     <g id="text_23">
      <!-- 1 -->
      <g transform="translate(75.3115 330.648316) scale(0.18 -0.18)">
       <use xlink:href="#DejaVuSans-31"/>
      </g>
     </g>
    </g>
    <g id="text_24">
     <!-- $u$ -->
     <g transform="translate(52.484625 381.697843) rotate(-90) scale(0.18 -0.18)">
      <defs>
       <path id="DejaVuSans-Oblique-75" d="M 428 1388 
L 838 3500 
L 1416 3500 
L 1006 1409 
Q 975 1256 961 1147 
Q 947 1038 947 966 
Q 947 700 1109 554 
Q 1272 409 1569 409 
Q 2031 409 2368 721 
Q 2706 1034 2809 1563 
L 3194 3500 
L 3769 3500 
L 3091 0 
L 2516 0 
L 2631 550 
Q 2388 244 2052 76 
Q 1716 -91 1338 -91 
Q 878 -91 622 161 
Q 366 413 366 863 
Q 366 956 381 1097 
Q 397 1238 428 1388 
z
" transform="scale(0.015625)"/>
      </defs>
      <use xlink:href="#DejaVuSans-Oblique-75" transform="translate(0 0.3125)"/>
     </g>
    </g>
   </g>
   <g id="line2d_40">
    <path d="M 114.162818 375.799627 
L 118.283792 370.599251 
L 122.404765 365.150749 
L 126.525738 359.566508 
L 130.646712 353.964882 
L 134.767685 348.467402 
L 138.888658 343.19586 
L 143.009632 338.269338 
L 147.130605 333.801268 
L 151.251579 329.896616 
L 155.372552 326.649271 
L 159.493525 324.139707 
L 163.614499 322.433008 
L 167.735472 321.577282 
L 171.856445 321.602549 
L 175.977419 322.520092 
L 180.098392 324.322317 
L 184.219365 326.983103 
L 188.340339 330.458626 
L 192.461312 334.688634 
L 196.582286 339.598104 
L 200.703259 345.099247 
L 204.824232 351.093766 
L 208.945206 357.475315 
L 213.066179 364.132054 
L 217.187152 370.949242 
L 221.308126 377.811775 
L 225.429099 384.606595 
L 229.550073 391.224916 
L 233.671046 397.5642 
L 237.792019 403.529856 
L 241.912993 409.036606 
L 246.033966 414.009542 
L 250.154939 418.384831 
L 254.275913 422.110116 
L 258.396886 425.144612 
L 262.51786 427.458947 
L 266.638833 429.034782 
L 270.759806 429.864262 
L 274.88078 429.94934 
L 279.001753 429.301037 
L 283.122726 427.938675 
L 287.2437 425.889119 
L 291.364673 423.186082 
L 295.485646 419.869494 
L 299.60662 415.984963 
L 303.727593 411.583334 
L 307.848567 406.720325 
L 311.96954 401.456247 
L 316.090513 395.855756 
L 320.211487 389.987631 
L 324.33246 383.92453 
L 328.453433 377.742689 
L 332.574407 371.52153 
L 336.69538 365.343147 
L 340.816354 359.29164 
L 344.937327 353.45228 
L 349.0583 347.910499 
L 353.179274 342.750702 
L 357.300247 338.054916 
L 361.42122 333.901308 
L 365.542194 330.362589 
L 369.663167 327.504374 
L 373.78414 325.383533 
L 377.905114 324.04659 
L 382.026087 323.528253 
L 386.147061 323.850106 
L 390.268034 325.019547 
L 394.389007 327.029014 
L 398.509981 329.855543 
L 402.630954 333.4607 
L 406.751927 337.7909 
L 410.872901 342.778134 
L 414.993874 348.341086 
L 419.114848 354.386626 
L 423.235821 360.811653 
L 427.356794 367.505222 
L 431.477768 374.350916 
L 435.598741 381.229384 
L 439.719714 388.020986 
L 443.840688 394.608442 
L 447.961661 400.87944 
L 452.082635 406.729096 
L 456.203608 412.062219 
L 460.324581 416.795305 
L 464.445555 420.858198 
L 468.566528 424.195401 
L 472.687501 426.766973 
L 476.808475 428.549028 
L 480.929448 429.533798 
L 485.050421 429.729308 
L 489.171395 429.158648 
L 493.292368 427.858906 
L 497.413342 425.879784 
L 501.534315 423.281964 
L 505.655288 420.135267 
L 509.776262 416.516676 
L 513.897235 412.508283 
L 518.018208 408.195219 
L 522.139182 403.663618 
" clip-path="url(#p222cccf915)" style="fill: none; stroke: #0000ff; stroke-width: 1.5; stroke-linecap: square"/>
   </g>
   <g id="line2d_41">
    <path d="M 114.162818 376.863377 
L 118.283792 370.448367 
L 122.404765 364.127493 
L 126.525738 357.99351 
L 130.646712 352.136431 
L 134.767685 346.642206 
L 138.888658 341.591458 
L 143.009632 337.058304 
L 147.130605 333.109265 
L 151.251579 329.802292 
L 155.372552 327.185912 
L 159.493525 325.298519 
L 163.614499 324.167809 
L 167.735472 323.810375 
L 171.856445 324.231462 
L 175.977419 325.42489 
L 180.098392 327.373148 
L 184.219365 330.047644 
L 188.340339 333.409134 
L 192.461312 337.408288 
L 196.582286 341.986422 
L 200.703259 347.076354 
L 204.824232 352.603393 
L 208.945206 358.486433 
L 213.066179 364.639143 
L 217.187152 370.971236 
L 221.308126 377.389794 
L 225.429099 383.800626 
L 229.550073 390.109658 
L 233.671046 396.224309 
L 237.792019 402.054851 
L 241.912993 407.515722 
L 246.033966 412.526789 
L 250.154939 417.014516 
L 254.275913 420.91305 
L 258.396886 424.165181 
L 262.51786 426.723187 
L 266.638833 428.54953 
L 270.759806 429.61741 
L 274.88078 429.911157 
L 279.001753 429.426459 
L 283.122726 428.170429 
L 287.2437 426.161499 
L 291.364673 423.429149 
L 295.485646 420.013475 
L 299.60662 415.964598 
L 303.727593 411.341935 
L 307.848567 406.21332 
L 311.96954 400.654012 
L 316.090513 394.74559 
L 320.211487 388.574758 
L 324.33246 382.232069 
L 328.453433 375.810597 
L 332.574407 369.404574 
L 336.69538 363.108005 
L 340.816354 357.013287 
L 344.937327 351.209858 
L 349.0583 345.782878 
L 353.179274 340.811986 
L 357.300247 336.370127 
L 361.42122 332.522481 
L 365.542194 329.325512 
L 369.663167 326.826132 
L 373.78414 325.061019 
L 377.905114 324.056074 
L 382.026087 323.826044 
L 386.147061 324.374306 
L 390.268034 325.692813 
L 394.389007 327.762217 
L 398.509981 330.552151 
L 402.630954 334.021675 
L 406.751927 338.119875 
L 410.872901 342.786612 
L 414.993874 347.953406 
L 419.114848 353.544436 
L 423.235821 359.477657 
L 427.356794 365.666003 
L 431.477768 372.018664 
L 435.598741 378.442419 
L 439.719714 384.843001 
L 443.840688 391.126488 
L 447.961661 397.200672 
L 452.082635 402.976419 
L 456.203608 408.368972 
L 460.324581 413.2992 
L 464.445555 417.694754 
L 468.566528 421.491132 
L 472.687501 424.632624 
L 476.808475 427.073132 
L 480.929448 428.776842 
L 485.050421 429.718752 
L 489.171395 429.885043 
L 493.292368 429.273272 
L 497.413342 427.892417 
L 501.534315 425.762742 
L 505.655288 422.915498 
L 509.776262 419.392467 
L 513.897235 415.245347 
L 518.018208 410.534995 
L 522.139182 405.330532 
" clip-path="url(#p222cccf915)" style="fill: none; stroke-dasharray: 5.55,2.4; stroke-dashoffset: 0; stroke: #ff0000; stroke-width: 1.5"/>
   </g>
   <g id="line2d_42">
    <g clip-path="url(#p222cccf915)">
     <use xlink:href="#m8b41417855" x="114.162818" y="375.931345" style="stroke: #000000; stroke-linejoin: bevel"/>
     <use xlink:href="#m8b41417855" x="159.493525" y="324.216076" style="stroke: #000000; stroke-linejoin: bevel"/>
     <use xlink:href="#m8b41417855" x="204.824232" y="351.250198" style="stroke: #000000; stroke-linejoin: bevel"/>
     <use xlink:href="#m8b41417855" x="250.154939" y="418.93027" style="stroke: #000000; stroke-linejoin: bevel"/>
     <use xlink:href="#m8b41417855" x="295.485646" y="419.636391" style="stroke: #000000; stroke-linejoin: bevel"/>
     <use xlink:href="#m8b41417855" x="340.816354" y="359.592185" style="stroke: #000000; stroke-linejoin: bevel"/>
     <use xlink:href="#m8b41417855" x="386.147061" y="323.237697" style="stroke: #000000; stroke-linejoin: bevel"/>
     <use xlink:href="#m8b41417855" x="431.477768" y="374.303245" style="stroke: #000000; stroke-linejoin: bevel"/>
     <use xlink:href="#m8b41417855" x="476.808475" y="428.392965" style="stroke: #000000; stroke-linejoin: bevel"/>
     <use xlink:href="#m8b41417855" x="522.139182" y="403.65958" style="stroke: #000000; stroke-linejoin: bevel"/>
    </g>
   </g>
   <g id="patch_15">
    <path d="M 93.764 439 
L 93.764 312.875686 
" style="fill: none; stroke: #000000; stroke-width: 0.8; stroke-linejoin: miter; stroke-linecap: square"/>
   </g>
   <g id="patch_16">
    <path d="M 542.538 439 
L 542.538 312.875686 
" style="fill: none; stroke: #000000; stroke-width: 0.8; stroke-linejoin: miter; stroke-linecap: square"/>
   </g>
   <g id="patch_17">
    <path d="M 93.764 439 
L 542.538 439 
" style="fill: none; stroke: #000000; stroke-width: 0.8; stroke-linejoin: miter; stroke-linecap: square"/>
   </g>
   <g id="patch_18">
    <path d="M 93.764 312.875686 
L 542.538 312.875686 
" style="fill: none; stroke: #000000; stroke-width: 0.8; stroke-linejoin: miter; stroke-linecap: square"/>
   </g>
  </g>
 </g>
 <defs>
  <clipPath id="p63962c07f8">
   <rect x="93.764" y="50.027059" width="448.774" height="126.124314"/>
  </clipPath>
  <clipPath id="p2710b5a8f6">
   <rect x="93.764" y="181.451373" width="448.774" height="126.124314"/>
  </clipPath>
  <clipPath id="p222cccf915">
   <rect x="93.764" y="312.875686" width="448.774" height="126.124314"/>
  </clipPath>
 </defs>
</svg>
